<?xml version="1.0" encoding="UTF-8" standalone="no"?><!DOCTYPE svg PUBLIC "-//W3C//DTD SVG 1.1//EN" "http://www.w3.org/Graphics/SVG/1.1/DTD/svg11.dtd"><svg width="100%" height="100%" viewBox="0 0 46 46" version="1.1" xmlns="http://www.w3.org/2000/svg" xmlns:xlink="http://www.w3.org/1999/xlink" xml:space="preserve" xmlns:serif="http://www.serif.com/" style="fill-rule:evenodd;clip-rule:evenodd;stroke-linejoin:round;stroke-miterlimit:2;"><rect id="Artboard3" x="0" y="0" width="45.7" height="45.7" style="fill:none;"/><g><circle cx="22.85" cy="22.85" r="22.84" style="fill:#fff;"/><path d="M39.882,24.237c0.008,-1.341 -0.413,-2.092 -1.477,-2.615l-6.51,-3.197c-0.257,-0.127 -0.52,-0.239 -0.786,-0.335l-0.043,-4.337c-0.029,-1.275 -0.419,-2.087 -1.483,-2.61l-6.509,-3.197c-2.269,-1.115 -4.933,-1.083 -7.175,0.084l-8.365,4.357c-0.926,0.483 -1.405,1.378 -1.426,2.287l-0.389,6.565c-0.016,0.619 0.224,1.283 0.823,1.637l6.965,4.111c0.413,0.244 0.843,0.447 1.284,0.61l-0.212,4.147c-0.026,0.656 0.184,1.258 0.784,1.611l6.964,4.11c2.454,1.449 5.495,1.473 7.972,0.063l8.869,-5.051c0.612,-0.348 0.814,-0.957 0.813,-1.619l-0.101,-6.621l0.002,-0Zm-25.298,-5.506c-1.477,-0.671 -5.502,-2.778 -5.812,-2.948c-0.693,-0.384 -0.725,-0.79 -0.689,-1.279c0.016,-0.224 0.088,-0.444 0.215,-0.637c0.127,-0.194 0.308,-0.36 0.543,-0.478c0.332,-0.166 7.964,-3.99 7.964,-3.99c1.497,-0.745 3.234,-0.842 4.795,-0.289c0.223,0.078 0.442,0.17 0.657,0.276c1.42,0.697 4.261,2.091 5.68,2.791c0.003,0.002 0.01,0.005 0.014,0.007c0.589,0.295 0.834,0.903 0.733,1.456c-0.07,0.383 -0.27,0.716 -0.707,0.953c-0.11,0.06 -6.211,3.299 -7.426,3.941c-1.854,0.982 -4.053,1.066 -5.966,0.196l-0.001,0.001Zm22.896,5.574c-0.059,0.409 -0.291,0.797 -0.702,1.037l-7.585,4.44c-1.892,1.108 -4.224,1.148 -6.153,0.107l-5.566,-3.005c-1.01,-0.545 -1.016,-1.993 -0.01,-2.548l7.53,-4.143c1.75,-0.963 3.852,-1.036 5.664,-0.196l5.997,2.777c0.512,0.238 0.794,0.707 0.835,1.194c0.009,0.113 0.006,0.227 -0.01,0.338l0,-0.001Z" style="fill:url(#_Linear1);"/></g><defs><linearGradient id="_Linear1" x1="0" y1="0" x2="1" y2="0" gradientUnits="userSpaceOnUse" gradientTransform="matrix(16.9688,27.4184,-27.4184,16.9688,13.2702,9.81871)"><stop offset="0" style="stop-color:#9894f9;stop-opacity:1"/><stop offset="1" style="stop-color:#453aff;stop-opacity:1"/></linearGradient></defs></svg>