<?xml version="1.0" encoding="UTF-8" standalone="no"?><!DOCTYPE svg PUBLIC "-//W3C//DTD SVG 1.1//EN" "http://www.w3.org/Graphics/SVG/1.1/DTD/svg11.dtd"><svg width="100%" height="100%" viewBox="0 0 46 46" version="1.1" xmlns="http://www.w3.org/2000/svg" xmlns:xlink="http://www.w3.org/1999/xlink" xml:space="preserve" xmlns:serif="http://www.serif.com/" style="fill-rule:evenodd;clip-rule:evenodd;stroke-linejoin:round;stroke-miterlimit:2;"><rect id="Artboard4" x="-0" y="0" width="45.7" height="45.7" style="fill:none;"/><g><circle cx="22.85" cy="22.85" r="22.84" style="fill:#fff;"/><g><path d="M24.961,8.074c-8.097,0.023 -14.753,6.679 -14.777,14.776l18.721,3.944l-3.944,-18.72Z" style="fill:#ed6c47;fill-rule:nonzero;"/><path d="M24.961,8.074c8.097,0.023 14.753,6.679 14.776,14.776l-7.388,5.022l-7.388,-5.022l-0,-14.776Z" style="fill:#ff8f6b;fill-rule:nonzero;"/><path d="M24.961,37.626c8.097,-0.023 14.753,-6.679 14.776,-14.776l-29.553,-0c0.024,8.097 6.68,14.753 14.777,14.776Z" style="fill:#d35230;fill-rule:nonzero;"/><path d="M23.553,13.351l-9.88,-0c-4.979,5.866 -4.546,14.702 0.982,20.054l8.899,-0c0.771,-0.003 1.405,-0.636 1.407,-1.407l-0,-17.239c-0.002,-0.771 -0.636,-1.405 -1.407,-1.407l-0.001,-0.001Z" style="fill-opacity:0.09;fill-rule:nonzero;"/><path d="M22.498,14.406l-9.635,0c-4.492,6.375 -3.159,15.275 3.004,20.054l6.631,0c0.771,-0.002 1.404,-0.636 1.406,-1.407l0,-17.239c-0.002,-0.771 -0.635,-1.404 -1.406,-1.407l-0,-0.001Zm-0,0l-9.635,0c-3.842,5.448 -3.508,12.863 0.809,17.943l8.824,0c0.771,-0.002 1.405,-0.636 1.407,-1.407l0,-15.128c-0.002,-0.771 -0.636,-1.404 -1.407,-1.407l0.002,-0.001Zm-1.056,0l-8.579,0c-3.842,5.448 -3.508,12.863 0.809,17.943l7.769,0c0.771,-0.002 1.405,-0.636 1.407,-1.407l-0,-15.128c-0.002,-0.771 -0.636,-1.404 -1.407,-1.407l0.001,-0.001Z" style="fill-opacity:0.2;fill-rule:nonzero;"/><path d="M7.369,14.406l14.073,0c0.772,0 1.407,0.635 1.407,1.407l-0,14.073c-0,0.772 -0.635,1.407 -1.407,1.407l-14.073,-0c-0.771,-0 -1.406,-0.635 -1.406,-1.407l-0,-14.073c-0,-0.772 0.635,-1.407 1.406,-1.407Z" style="fill:#c43e1c;fill-rule:nonzero;"/><path d="M14.403,17.573c1.039,-0.07 2.07,0.231 2.908,0.849c0.696,0.621 1.068,1.53 1.009,2.461c0.011,0.596 -0.163,1.182 -0.499,1.675c-0.342,0.545 -0.835,0.98 -1.419,1.252c-0.667,0.31 -1.396,0.463 -2.132,0.447l-2.017,-0l0,3.869l-2.069,0l0,-10.554l4.219,0.001Zm-2.15,4.942l1.781,0c0.564,0.042 1.124,-0.125 1.573,-0.468c0.364,-0.234 0.569,-0.651 0.532,-1.082c0,-1.167 -0.679,-1.751 -2.039,-1.751l-1.847,-0l0,3.301Z" style="fill:#f9f7f7;fill-rule:nonzero;"/></g></g></svg>