<?xml version="1.0" encoding="UTF-8" standalone="no"?><!DOCTYPE svg PUBLIC "-//W3C//DTD SVG 1.1//EN" "http://www.w3.org/Graphics/SVG/1.1/DTD/svg11.dtd"><svg width="100%" height="100%" viewBox="0 0 46 46" version="1.1" xmlns="http://www.w3.org/2000/svg" xmlns:xlink="http://www.w3.org/1999/xlink" xml:space="preserve" xmlns:serif="http://www.serif.com/" style="fill-rule:evenodd;clip-rule:evenodd;stroke-linejoin:round;stroke-miterlimit:2;"><rect id="Artboard1" x="0" y="0" width="45.7" height="45.7" style="fill:none;"/><g><circle cx="22.85" cy="22.85" r="22.84" style="fill:#39ac37;"/><path d="M27.658,27.265c0,1.377 -1.879,2.579 -4.655,2.579c-3.016,0 -5.267,-1.552 -5.267,-3.431l-5.181,-0c0,4.808 4.569,7.868 10.448,7.868c5.836,0 10.12,-3.016 10.12,-7.016c-0,-8.48 -15.169,-4.983 -15.169,-8.765c0,-1.508 1.792,-2.6 4.656,-2.6c3.06,-0 4.852,1.879 4.852,3.715l5.18,0c-0,-4.808 -4.153,-8.152 -10.032,-8.152c-5.836,-0 -9.902,3.213 -9.902,7.059c-0.021,8.699 14.95,5.159 14.95,8.743Z" style="fill:#fff;fill-rule:nonzero;"/></g></svg>