<?xml version="1.0" encoding="UTF-8" standalone="no"?><!DOCTYPE svg PUBLIC "-//W3C//DTD SVG 1.1//EN" "http://www.w3.org/Graphics/SVG/1.1/DTD/svg11.dtd"><svg width="100%" height="100%" viewBox="0 0 46 46" version="1.1" xmlns="http://www.w3.org/2000/svg" xmlns:xlink="http://www.w3.org/1999/xlink" xml:space="preserve" xmlns:serif="http://www.serif.com/" style="fill-rule:evenodd;clip-rule:evenodd;stroke-linejoin:round;stroke-miterlimit:2;"><rect id="Artboard5" x="0" y="0" width="45.7" height="45.7" style="fill:none;"/><g><circle cx="22.85" cy="22.85" r="22.84" style="fill:#fff;"/><g><g><path d="M13.162,7.459l25.602,5.18l-5.18,25.602l-25.602,-5.18l5.18,-25.602Z" style="fill:#512833;fill-rule:nonzero;"/><path d="M9.922,8.589l25.999,2.523l-2.523,26l-25.999,-2.523l2.523,-26Z" style="fill:#934358;fill-rule:nonzero;"/><rect x="6.936" y="9.79" width="26.122" height="26.122" style="fill:#e5637c;"/></g><path d="M15.946,27.725c0,-0.154 0.097,-0.386 0.29,-0.696c0.194,-0.31 0.368,-0.464 0.523,-0.464c0.015,-0 0.139,0.073 0.371,0.22c0.232,0.147 0.565,0.294 0.998,0.441c0.434,0.148 0.956,0.221 1.568,0.221c0.611,-0 1.114,-0.174 1.509,-0.522c0.394,-0.349 0.592,-0.821 0.592,-1.417c-0,-0.595 -0.174,-1.06 -0.523,-1.393c-0.348,-0.332 -1.041,-0.646 -2.078,-0.94c-1.037,-0.294 -1.787,-0.669 -2.252,-1.126c-0.464,-0.456 -0.696,-1.149 -0.696,-2.078c-0,-0.929 0.356,-1.706 1.068,-2.333c0.711,-0.627 1.64,-0.94 2.786,-0.94c0.789,-0 1.493,0.1 2.113,0.301c0.618,0.202 0.928,0.426 0.928,0.674c0,0.201 -0.089,0.46 -0.267,0.777c-0.178,0.318 -0.336,0.476 -0.476,0.476c-0.015,0 -0.116,-0.046 -0.301,-0.139c-0.527,-0.279 -1.119,-0.418 -1.777,-0.418c-0.658,0 -1.168,0.136 -1.532,0.406c-0.364,0.271 -0.546,0.624 -0.546,1.057c0,0.433 0.136,0.774 0.407,1.021c0.27,0.248 0.731,0.473 1.381,0.674c1.455,0.449 2.442,0.94 2.96,1.474c0.519,0.534 0.778,1.339 0.778,2.414c0,1.076 -0.383,1.962 -1.149,2.659c-0.766,0.696 -1.683,1.044 -2.751,1.044c-1.068,0 -1.989,-0.158 -2.763,-0.476c-0.774,-0.317 -1.161,-0.622 -1.161,-0.917Z" style="fill:#fff;fill-rule:nonzero;"/></g></g></svg>